# xmcd CD database file
#
# Track frame offsets:
#	150
#	17097
#	34350
#
# Disc length: 701 seconds
#
# Revision: 0
# Processed by: cddbd v1.5.1PL0 Copyright (c) Steve Scherf et al.
# Submitted via: CDex 1.51
#
DISCID=1e02bb03
DTITLE=Hunters and Collectors - Easy (Maxi CD)
DYEAR=1994
DGENRE=Salsa
TTITLE0=Easy
TTITLE1=Panic in the shade
TTITLE2=The trade off
EXTD=YEAR: 1994
EXTT0=
EXTT1=
EXTT2=
PLAYORDER=
